<svg width="24" height="25" viewBox="0 0 24 25" fill="none" xmlns="http://www.w3.org/2000/svg">
<path d="M3.38742 8.86413C4.02078 6.15522 6.04328 4.06072 8.60868 3.457L9.03604 3.35643C10.9683 2.9017 12.9709 2.9017 14.9032 3.35643L15.3306 3.457C17.896 4.06072 19.9185 6.15522 20.5518 8.86414C21.0357 10.9335 21.0357 13.0972 20.5518 15.1666C19.9185 17.8755 17.896 19.97 15.3306 20.5738L14.9032 20.6743C12.9709 21.1291 10.9683 21.1291 9.03604 20.6743L8.60868 20.5738C6.04328 19.97 4.02078 17.8755 3.38742 15.1666C2.90358 13.0972 2.90358 10.9335 3.38742 8.86413Z" stroke="#350882" stroke-width="1.5"/>
<path fill-rule="evenodd" clip-rule="evenodd" d="M11.9698 7.01538C12.3298 7.01538 12.6216 7.30737 12.6216 7.66755V8.20111H12.6938C13.9061 8.20111 14.7943 9.25553 14.7943 10.4343C14.7943 10.7945 14.5025 11.0865 14.1424 11.0865C13.7824 11.0865 13.4906 10.7945 13.4906 10.4343C13.4906 9.86675 13.0816 9.50546 12.6938 9.50546H12.6216V11.5586L13.5018 11.8788C14.3016 12.1698 14.7943 12.9611 14.7943 13.7992C14.7943 14.866 13.9893 15.8296 12.8797 15.8296H12.6216V16.3632C12.6216 16.7234 12.3298 17.0154 11.9698 17.0154C11.6098 17.0154 11.3179 16.7234 11.3179 16.3632V15.8296H11.2452C10.033 15.8296 9.14478 14.7752 9.14478 13.5964C9.14478 13.2362 9.43663 12.9442 9.79664 12.9442C10.1567 12.9442 10.4485 13.2362 10.4485 13.5964C10.4485 14.1639 10.8575 14.5252 11.2452 14.5252H11.3179V12.4722L10.4373 12.1519C9.63751 11.8609 9.14478 11.0696 9.14478 10.2315C9.14478 9.16472 9.94975 8.20111 11.0594 8.20111H11.3179V7.66755C11.3179 7.30737 11.6098 7.01538 11.9698 7.01538ZM11.3179 9.50546H11.0594C10.7742 9.50546 10.4485 9.77593 10.4485 10.2315C10.4485 10.5798 10.6514 10.8418 10.8829 10.926L11.3179 11.0843V9.50546ZM12.6216 12.9465V14.5252H12.8797C13.1648 14.5252 13.4906 14.2548 13.4906 13.7992C13.4906 13.4508 13.2877 13.1889 13.0562 13.1046L12.6216 12.9465Z" fill="#350882"/>
</svg>
