<svg width="23" height="24" viewBox="0 0 23 24" fill="none" xmlns="http://www.w3.org/2000/svg">
<path d="M8.58551 9.05793H14.2649M8.58551 12.5141H12.1996M12.7421 18.9268H13.7415C16.4596 18.9268 18.8241 16.8499 19.4621 13.9021C19.779 12.4382 19.779 10.9113 19.4621 9.44741L19.3785 9.06088C18.7635 6.21958 16.7592 4.01204 14.2048 3.36264L13.8459 3.27141C12.4224 2.90953 10.9442 2.90953 9.52074 3.27141L9.31072 3.32481C6.66513 3.99738 4.58925 6.28371 3.95236 9.22642C3.6041 10.8355 3.60728 12.5287 3.95554 14.1378C4.60239 17.1265 6.50516 19.6138 9.05771 20.7728L9.16896 20.8233C10.2735 21.3249 11.5389 20.7208 11.9921 19.4902C12.1169 19.1515 12.4139 18.9268 12.7421 18.9268Z" stroke="#870808" stroke-width="1.5" stroke-linecap="round"/>
</svg>
