<svg width="23" height="24" viewBox="0 0 23 24" fill="none" xmlns="http://www.w3.org/2000/svg">
<path d="M3.66615 13.5544L4.38977 13.3573L3.66615 13.5544ZM3.66615 6.90653L2.94253 6.70936L3.66615 6.90653ZM19.7263 6.90654L20.4499 6.70937V6.70937L19.7263 6.90654ZM19.7263 13.5544L19.0027 13.3573L19.0027 13.3573L19.7263 13.5544ZM16.2298 17.0075L16.0813 16.2724L16.2298 17.0075ZM7.16268 17.0075L7.31113 16.2724L7.16268 17.0075ZM7.16268 3.45344L7.01423 2.71828L7.16268 3.45344ZM16.2298 3.45344L16.3782 2.71828L16.2298 3.45344ZM3.7116 13.7212L2.98798 13.9184H2.98798L3.7116 13.7212ZM19.6808 13.7212L20.4045 13.9184L20.4045 13.9184L19.6808 13.7212ZM19.6808 6.73973L18.9572 6.9369V6.93691L19.6808 6.73973ZM3.7116 6.73973L4.43522 6.9369L4.43522 6.9369L3.7116 6.73973ZM12.4462 17.923C12.4462 17.5088 12.1104 17.173 11.6962 17.173C11.282 17.173 10.9462 17.5088 10.9462 17.923H12.4462ZM10.9462 21C10.9462 21.4142 11.282 21.75 11.6962 21.75C12.1104 21.75 12.4462 21.4142 12.4462 21H10.9462ZM9.21406 20.25C8.79985 20.25 8.46406 20.5858 8.46406 21C8.46406 21.4142 8.79985 21.75 9.21406 21.75V20.25ZM14.1784 21.75C14.5926 21.75 14.9284 21.4142 14.9284 21C14.9284 20.5858 14.5926 20.25 14.1784 20.25V21.75ZM18.9572 6.93691L19.0027 7.10371L20.4499 6.70937L20.4045 6.54256L18.9572 6.93691ZM19.0027 13.3573L18.9572 13.5241L20.4045 13.9184L20.4499 13.7516L19.0027 13.3573ZM4.43522 13.5241L4.38977 13.3573L2.94253 13.7516L2.98798 13.9184L4.43522 13.5241ZM4.38977 7.10371L4.43522 6.9369L2.98798 6.54256L2.94253 6.70936L4.38977 7.10371ZM4.38977 13.3573C3.83264 11.3126 3.83264 9.14834 4.38977 7.10371L2.94253 6.70936C2.31506 9.01219 2.31506 11.4488 2.94253 13.7516L4.38977 13.3573ZM19.0027 7.10371C19.5598 9.14835 19.5598 11.3126 19.0027 13.3573L20.4499 13.7516C21.0774 11.4488 21.0774 9.01219 20.4499 6.70937L19.0027 7.10371ZM16.0813 16.2724C13.1853 16.8572 10.2072 16.8572 7.31113 16.2724L7.01423 17.7427C10.1062 18.3671 13.2862 18.3671 16.3782 17.7427L16.0813 16.2724ZM7.31113 4.1886C10.2072 3.6038 13.1853 3.6038 16.0813 4.1886L16.3782 2.71828C13.2862 2.09391 10.1062 2.09391 7.01423 2.71828L7.31113 4.1886ZM7.31113 16.2724C5.94087 15.9957 4.82131 14.941 4.43522 13.5241L2.98798 13.9184C3.51765 15.8623 5.06749 17.3496 7.01423 17.7427L7.31113 16.2724ZM16.3782 17.7427C18.325 17.3496 19.8748 15.8623 20.4045 13.9184L18.9572 13.5241C18.5711 14.941 17.4516 15.9957 16.0813 16.2724L16.3782 17.7427ZM16.0813 4.1886C17.4516 4.4653 18.5711 5.51995 18.9572 6.9369L20.4045 6.54256C19.8748 4.59868 18.325 3.11139 16.3782 2.71828L16.0813 4.1886ZM7.01423 2.71828C5.06749 3.11139 3.51765 4.59868 2.98798 6.54256L4.43522 6.9369C4.82131 5.51995 5.94087 4.4653 7.31113 4.1886L7.01423 2.71828ZM10.9462 17.923V21H12.4462V17.923H10.9462ZM9.21406 21.75H14.1784V20.25H9.21406V21.75Z" fill="#003F95"/>
<path d="M7.92993 11.25L9.79396 9.69102C10.1809 9.36741 10.3743 9.20561 10.5907 9.23301C10.807 9.26041 10.954 9.46534 11.248 9.87518L12.1445 11.1248C12.4386 11.5347 12.5856 11.7396 12.8019 11.767C13.0182 11.7944 13.2117 11.6326 13.5986 11.309L15.4626 9.75" stroke="#003F95" stroke-width="1.5" stroke-linecap="round"/>
</svg>
